<?xml version="1.0" encoding="utf-8"?>
<!-- Generator: Adobe Illustrator 23.0.2, SVG Export Plug-In . SVG Version: 6.00 Build 0)  -->
<svg version="1.1" id="Layer_1" xmlns="http://www.w3.org/2000/svg" xmlns:xlink="http://www.w3.org/1999/xlink" x="0px" y="0px"
	 viewBox="0 0 150 24" style="enable-background:new 0 0 150 24;" xml:space="preserve">
<style type="text/css">
	.st0{fill:none;}
	.st1{fill:#6D8DB0;}
	.st2{fill:#365273;}
</style>
<rect class="st0" width="150" height="24"/>
<g>
	<path class="st1" d="M2.4,6.1h2v1.7h0c0.8-1.4,2-2,3.8-2c1.4,0,2.7,0.7,3.4,2.3c0.8-1.7,2.6-2.3,3.7-2.3c3,0,4.1,2,4.1,4.5V18h-2.2
		v-7.1c0-1.5-0.3-3.3-2.1-3.3C12.9,7.6,12,9.8,12,12v6H9.8v-7.1c0-1.5-0.3-3.3-2.1-3.3c-2.2,0-3.1,2.2-3.1,4.4v6H2.4V6.1z"/>
	<path class="st1" d="M22,21.2c0.3,0.1,0.7,0.2,1,0.2c2,0,2.6-2.7,2.6-2.9c0-0.3-0.3-0.9-0.4-1.3l-4-11.1h2.4l3.2,9.8h0l3.3-9.8h2.2
		l-4.4,12.1c-0.8,2.3-1.7,4.9-4.6,4.9c-0.7,0-1.1-0.1-1.5-0.2L22,21.2z"/>
	<path class="st2" d="M34.3,1.7h4l6.2,12.2h0V1.7h3.1V18h-4L37.4,5.8h0V18h-3.1V1.7z"/>
	<path class="st2" d="M60.4,17.3c-1.1,0.6-2.4,1-4.1,1c-4,0-6.3-2.3-6.3-6.2c0-3.5,1.8-6.3,5.6-6.3c4.4,0,5.7,3.1,5.7,7.2H53
		c0.1,1.9,1.5,3,3.4,3c1.5,0,2.8-0.6,4-1.2V17.3z M58.3,10.8C58.2,9.3,57.5,8,55.8,8C54,8,53.1,9.2,53,10.8H58.3z"/>
	<path class="st2" d="M74.6,18h-3v-1.6h0c-1,1.2-2.3,1.9-3.9,1.9c-2.8,0-4.1-2-4.1-4.7V6h3.1v6.4c0,1.5,0,3.4,2,3.4
		c2.3,0,2.7-2.4,2.7-4V6h3.1V18z"/>
	<path class="st2" d="M77.6,0.5h3.1v7h0c0.9-1.1,2-1.8,3.6-1.8c3.7,0,5,2.9,5,6.2c0,3.3-1.4,6.3-5,6.3c-1.3,0-2.8-0.5-3.7-1.7h0V18
		h-3V0.5z M83.5,15.9c2,0,2.6-2.2,2.6-3.9c0-1.6-0.6-3.8-2.6-3.8c-2,0-2.8,2.1-2.8,3.8C80.8,13.7,81.5,15.9,83.5,15.9z"/>
	<path class="st2" d="M101.3,17.3c-1.1,0.6-2.4,1-4.1,1c-4,0-6.3-2.3-6.3-6.2c0-3.5,1.8-6.3,5.6-6.3c4.4,0,5.7,3.1,5.7,7.2h-8.3
		c0.1,1.9,1.5,3,3.4,3c1.5,0,2.8-0.6,4-1.2V17.3z M99.2,10.8C99.1,9.3,98.4,8,96.7,8c-1.7,0-2.6,1.2-2.8,2.8H99.2z"/>
	<path class="st2" d="M104.6,6h2.8v2.7h0c0.1-1.1,1.4-3,3.3-3c0.3,0,0.6,0,1,0.1V9c-0.3-0.2-0.8-0.3-1.4-0.3c-2.5,0-2.5,3.2-2.5,4.9
		V18h-3.1V6z"/>
	<path class="st2" d="M124.4,6v10.8c0,3.3-1.3,6.3-6.3,6.3c-1.2,0-2.7-0.2-4.1-0.8l0.3-2.7c1,0.5,2.5,1,3.5,1c3.4,0,3.6-2.6,3.6-4.7
		h0c-0.6,1-2,1.9-3.7,1.9c-3.5,0-4.9-2.8-4.9-6.1c0-2.9,1.5-6.2,5.1-6.2c1.6,0,2.8,0.5,3.7,1.9h0V6H124.4z M121.3,11.9
		c0-2-0.8-3.7-2.6-3.7c-2.1,0-2.8,2-2.8,3.8c0,1.6,0.9,3.6,2.7,3.6C120.5,15.6,121.3,13.9,121.3,11.9z"/>
	<path class="st2" d="M137.1,17.3c-1.1,0.6-2.4,1-4.1,1c-4,0-6.3-2.3-6.3-6.2c0-3.5,1.8-6.3,5.6-6.3c4.4,0,5.7,3.1,5.7,7.2h-8.3
		c0.1,1.9,1.5,3,3.4,3c1.5,0,2.8-0.6,4-1.2V17.3z M135,10.8c-0.1-1.5-0.8-2.8-2.5-2.8c-1.7,0-2.6,1.2-2.8,2.8H135z"/>
	<path class="st2" d="M140.3,6h2.8v2.7h0c0.1-1.1,1.4-3,3.3-3c0.3,0,0.6,0,1,0.1V9c-0.3-0.2-0.8-0.3-1.4-0.3c-2.5,0-2.5,3.2-2.5,4.9
		V18h-3.1V6z"/>
</g>
</svg>
